<?xml version="1.0" encoding="UTF-8"?>
<svg version="1.1" xmlns="http://www.w3.org/2000/svg" width="159" height="134">
<path d="M0 0 C2.82289631 1.54083244 3.72636439 3.60281464 5.27075195 6.40087891 C5.90827393 7.53847656 6.5457959 8.67607422 7.20263672 9.84814453 C7.88426171 11.09355126 8.56581938 12.33899483 9.24731445 13.58447266 C9.95537683 14.85548707 10.66494784 16.12566216 11.37597656 17.39501953 C12.46730862 19.34379052 13.55764472 21.2930488 14.64323425 23.24502563 C18.15364959 29.55545544 21.78079693 35.79351092 25.43481445 42.02197266 C27.0372511 44.76114224 28.63959736 47.5003584 30.23999023 50.24072266 C31.42865956 52.26604735 32.62614942 54.28620299 33.82885742 56.30322266 C34.47097168 57.38603516 35.11308594 58.46884766 35.7746582 59.58447266 C36.36625732 60.57576172 36.95785645 61.56705078 37.56738281 62.58837891 C38.87231445 65.02197266 38.87231445 65.02197266 38.87231445 67.02197266 C-12.27768555 67.02197266 -63.42768555 67.02197266 -116.12768555 67.02197266 C-116.12768555 66.69197266 -116.12768555 66.36197266 -116.12768555 66.02197266 C-114.89276367 65.87501953 -113.6578418 65.72806641 -112.38549805 65.57666016 C-96.6016033 63.54914057 -80.49407495 60.76810294 -68.12768555 50.02197266 C-67.51022461 49.51279297 -66.89276367 49.00361328 -66.2565918 48.47900391 C-62.35130382 44.95641675 -60.04551365 41.17745592 -57.50268555 36.58447266 C-53.65025507 29.97552972 -49.15394122 26.81140075 -42.45336914 23.27734375 C-38.42111776 21.10079151 -34.47883563 18.76773212 -30.51782227 16.46484375 C-26.13276639 13.91790209 -21.7354195 11.39296809 -17.33032227 8.88085938 C-15.13210836 7.60496361 -12.952057 6.29741142 -10.78833008 4.96386719 C-9.72598145 4.31401855 -8.66363281 3.66416992 -7.5690918 2.99462891 C-6.61848877 2.40045166 -5.66788574 1.80627441 -4.68847656 1.1940918 C-2.12768555 0.02197266 -2.12768555 0.02197266 0 0 Z " fill="#FFFFFF" transform="translate(118.127685546875,66.97802734375)"/>
<path d="M0 0 C0.66 0 1.32 0 2 0 C2.37576453 30.17597947 0.14591406 62.13126446 -9 91 C-9.25120605 91.83289551 -9.50241211 92.66579102 -9.76123047 93.52392578 C-11.34236211 96.68431937 -12.89491439 97.53661005 -15.96875 99.2421875 C-17.00257812 99.82621338 -18.03640625 100.41023926 -19.1015625 101.01196289 C-20.22304688 101.62676514 -21.34453125 102.24156738 -22.5 102.875 C-23.66493046 103.5276687 -24.82898117 104.18190991 -25.9921875 104.83764648 C-28.42240438 106.2060124 -30.85631875 107.56744159 -33.29296875 108.92431641 C-39.23205715 112.23960541 -45.11257441 115.65664309 -51 119.0625 C-52.05380859 119.66884277 -53.10761719 120.27518555 -54.19335938 120.89990234 C-59.86087047 124.16370066 -65.48144223 127.48317638 -71.0390625 130.93139648 C-73 132 -73 132 -75 132 C-73.5839494 128.21481268 -71.84578935 124.80250679 -69.83203125 121.30078125 C-69.19386475 120.18751465 -68.55569824 119.07424805 -67.89819336 117.92724609 C-67.20304466 116.72228318 -66.5078113 115.5173691 -65.8125 114.3125 C-65.09031382 113.05565201 -64.3683941 111.79865088 -63.64672852 110.54150391 C-61.79256933 107.31362852 -59.93436047 104.08810651 -58.07458496 100.86346436 C-56.42607817 98.00474796 -54.77968312 95.14481546 -53.1328125 92.28515625 C-50.04520824 86.92721891 -46.95279067 81.57207499 -43.85888672 76.21777344 C-40.73675397 70.81329358 -37.61855266 65.40654621 -34.5 60 C-30.7162997 53.4405645 -26.93190491 46.88153412 -23.14453125 40.32421875 C-15.39422564 26.90293385 -7.67413555 13.46499442 0 0 Z " fill="#FFFFFF" transform="translate(75,0)"/>
<path d="M0 0 C0.66 0 1.32 0 2 0 C2.55945313 1.0209375 3.11890625 2.041875 3.6953125 3.09375 C8.63723428 12.07055857 13.69823972 20.96895709 18.875 29.8125 C19.75418091 31.31816528 19.75418091 31.31816528 20.65112305 32.85424805 C23.03166512 36.93028645 25.41290139 41.00574304 27.81298828 45.0703125 C29.53007124 47.97925305 31.23475796 50.89514888 32.9375 53.8125 C33.4639209 54.69591064 33.9903418 55.57932129 34.53271484 56.48950195 C35.00531738 57.30378662 35.47791992 58.11807129 35.96484375 58.95703125 C36.3837085 59.66835205 36.80257324 60.37967285 37.23413086 61.11254883 C38 63 38 63 37 66 C34.61767578 67.63476563 34.61767578 67.63476563 31.4453125 69.40625 C30.87601013 69.72779053 30.30670776 70.04933105 29.72015381 70.38061523 C27.85978155 71.42899972 25.99257721 72.464514 24.125 73.5 C22.84859516 74.21585993 21.57271778 74.93266112 20.29736328 75.65039062 C18.37390988 76.73264812 16.45009568 77.81419571 14.52426147 78.89221191 C8.13403522 82.47120635 1.81284235 86.16610212 -4.48779297 89.90039062 C-9.7819547 93 -9.7819547 93 -12 93 C-11.04650222 88.65537759 -10.08490888 84.31469833 -9.03515625 79.9921875 C-2.75169405 53.75099418 -1.70626277 26.83386237 0 0 Z " fill="#FFFFFF" transform="translate(79,0)"/>
<path d="M0 0 C-3.25461757 10.41477622 -12.19708015 18.1578726 -21.5 23.1875 C-26.30821376 25.4634692 -31.11513071 27.0547249 -36.25 28.375 C-37.22356445 28.62672974 -37.22356445 28.62672974 -38.21679688 28.88354492 C-42.92651787 29.99104657 -47.20089483 30.13864082 -52 30 C-49.45491034 27.12805807 -46.57809685 25.47097876 -43.25 23.59375 C-42.68352753 23.27220947 -42.11705505 22.95066895 -41.53341675 22.61938477 C-39.69147691 21.57504055 -37.84583094 20.53744871 -36 19.5 C-34.09630386 18.42380327 -32.19347765 17.34608046 -30.29074097 16.26818848 C-29.01837361 15.5474944 -27.74568842 14.82736117 -26.47268677 14.10778809 C-22.62922145 11.93303431 -18.80326228 9.73125361 -14.9921875 7.5 C-14.11691406 6.98759766 -13.24164063 6.47519531 -12.33984375 5.94726562 C-10.72860869 5.00120764 -9.11915175 4.05211306 -7.51171875 3.09960938 C-2.21876215 0 -2.21876215 0 0 0 Z " fill="#FFFFFF" transform="translate(61,100)"/>
</svg>
