<?xml version="1.0" encoding="UTF-8"?>
<svg version="1.1" xmlns="http://www.w3.org/2000/svg" width="512" height="512">
<path d="M0 0 C168.96 0 337.92 0 512 0 C512 168.96 512 337.92 512 512 C343.04 512 174.08 512 0 512 C0 343.04 0 174.08 0 0 Z " fill="#2CE7F3" transform="translate(0,0)"/>
<path d="M0 0 C31.68 0 63.36 0 96 0 C96 10.56 96 21.12 96 32 C106.56 32 117.12 32 128 32 C128 37.28 128 42.56 128 48 C133.28 48 138.56 48 144 48 C144 69.12 144 90.24 144 112 C149.28 112 154.56 112 160 112 C160 117.28 160 122.56 160 128 C165.28 128 170.56 128 176 128 C176 149.12 176 170.24 176 192 C170.72 192 165.44 192 160 192 C160 197.28 160 202.56 160 208 C165.28 208 170.56 208 176 208 C176 218.56 176 229.12 176 240 C181.28 240 186.56 240 192 240 C192 245.28 192 250.56 192 256 C197.28 256 202.56 256 208 256 C208 266.56 208 277.12 208 288 C213.28 288 218.56 288 224 288 C224 303.84 224 319.68 224 336 C229.28 336 234.56 336 240 336 C240 346.56 240 357.12 240 368 C224.16 368 208.32 368 192 368 C192 362.72 192 357.44 192 352 C165.6 352 139.2 352 112 352 C112 394.24 112 436.48 112 480 C64.48 480 16.96 480 -32 480 C-32 437.76 -32 395.52 -32 352 C-58.4 352 -84.8 352 -112 352 C-112 357.28 -112 362.56 -112 368 C-133.12 368 -154.24 368 -176 368 C-176 357.44 -176 346.88 -176 336 C-170.72 336 -165.44 336 -160 336 C-160 325.44 -160 314.88 -160 304 C-154.72 304 -149.44 304 -144 304 C-144 288.16 -144 272.32 -144 256 C-149.28 256 -154.56 256 -160 256 C-160 245.44 -160 234.88 -160 224 C-154.72 224 -149.44 224 -144 224 C-144 218.72 -144 213.44 -144 208 C-138.72 208 -133.44 208 -128 208 C-128 202.72 -128 197.44 -128 192 C-122.72 192 -117.44 192 -112 192 C-112 186.72 -112 181.44 -112 176 C-106.72 176 -101.44 176 -96 176 C-96 170.72 -96 165.44 -96 160 C-90.72 160 -85.44 160 -80 160 C-80 149.44 -80 138.88 -80 128 C-74.72 128 -69.44 128 -64 128 C-64 117.44 -64 106.88 -64 96 C-69.28 96 -74.56 96 -80 96 C-80 85.44 -80 74.88 -80 64 C-74.72 64 -69.44 64 -64 64 C-64 58.72 -64 53.44 -64 48 C-58.72 48 -53.44 48 -48 48 C-48 37.44 -48 26.88 -48 16 C-32.16 16 -16.32 16 0 16 C0 10.72 0 5.44 0 0 Z " fill="#FEFEFE" transform="translate(208,32)"/>
<path d="M0 0 C26.4 0 52.8 0 80 0 C80 5.28 80 10.56 80 16 C101.12 16 122.24 16 144 16 C144 21.28 144 26.56 144 32 C154.56 32 165.12 32 176 32 C176 37.28 176 42.56 176 48 C181.28 48 186.56 48 192 48 C192 74.4 192 100.8 192 128 C128.64 128 65.28 128 0 128 C0 85.76 0 43.52 0 0 Z " fill="#63C64D" transform="translate(320,384)"/>
<path d="M0 0 C26.4 0 52.8 0 80 0 C80 42.24 80 84.48 80 128 C21.92 128 -36.16 128 -96 128 C-96 101.6 -96 75.2 -96 48 C-90.72 48 -85.44 48 -80 48 C-80 42.72 -80 37.44 -80 32 C-74.72 32 -69.44 32 -64 32 C-64 26.72 -64 21.44 -64 16 C-42.88 16 -21.76 16 0 16 C0 10.72 0 5.44 0 0 Z " fill="#63C64D" transform="translate(96,384)"/>
<path d="M0 0 C5.28 0 10.56 0 16 0 C16 10.56 16 21.12 16 32 C21.28 32 26.56 32 32 32 C32 21.44 32 10.88 32 0 C58.4 0 84.8 0 112 0 C112 10.56 112 21.12 112 32 C117.28 32 122.56 32 128 32 C128 21.44 128 10.88 128 0 C133.28 0 138.56 0 144 0 C144 42.24 144 84.48 144 128 C96.48 128 48.96 128 0 128 C0 85.76 0 43.52 0 0 Z " fill="#C0CCDA" transform="translate(176,384)"/>
<path d="M0 0 C31.68 0 63.36 0 96 0 C96 10.56 96 21.12 96 32 C90.72 32 85.44 32 80 32 C80 26.72 80 21.44 80 16 C53.6 16 27.2 16 0 16 C0 10.72 0 5.44 0 0 Z " fill="#BDCCDC" transform="translate(208,32)"/>
<path d="M0 0 C12.54 0 25.08 0 38 0 C38 11.22 38 22.44 38 34 C25.46 34 12.92 34 0 34 C0 22.78 0 11.56 0 0 Z " fill="#F2F2F2" transform="translate(229,241)"/>
<path d="M0 0 C26.4 0 52.8 0 80 0 C80 5.28 80 10.56 80 16 C53.6 16 27.2 16 0 16 C0 10.72 0 5.44 0 0 Z " fill="#265C41" transform="translate(320,384)"/>
<path d="M0 0 C26.4 0 52.8 0 80 0 C80 5.28 80 10.56 80 16 C53.6 16 27.2 16 0 16 C0 10.72 0 5.44 0 0 Z " fill="#265C41" transform="translate(96,384)"/>
<path d="M0 0 C21.12 0 42.24 0 64 0 C64 5.28 64 10.56 64 16 C42.88 16 21.76 16 0 16 C0 10.72 0 5.44 0 0 Z " fill="#255C41" transform="translate(400,400)"/>
<path d="M0 0 C21.12 0 42.24 0 64 0 C64 5.28 64 10.56 64 16 C42.88 16 21.76 16 0 16 C0 10.72 0 5.44 0 0 Z " fill="#255C41" transform="translate(32,400)"/>
<path d="M0 0 C5.28 0 10.56 0 16 0 C16 21.12 16 42.24 16 64 C10.72 64 5.44 64 0 64 C0 42.88 0 21.76 0 0 Z " fill="#BDCDDC" transform="translate(368,160)"/>
<path d="M0 0 C5.28 0 10.56 0 16 0 C16 21.12 16 42.24 16 64 C10.72 64 5.44 64 0 64 C0 42.88 0 21.76 0 0 Z " fill="#BDCCDC" transform="translate(336,80)"/>
<path d="M0 0 C15.84 0 31.68 0 48 0 C48 5.28 48 10.56 48 16 C37.44 16 26.88 16 16 16 C16 21.28 16 26.56 16 32 C10.72 32 5.44 32 0 32 C0 21.44 0 10.88 0 0 Z " fill="#BDCCDC" transform="translate(160,48)"/>
<path d="M0 0 C5.28 0 10.56 0 16 0 C16 15.84 16 31.68 16 48 C10.72 48 5.44 48 0 48 C0 32.16 0 16.32 0 0 Z " fill="#BDCCDC" transform="translate(416,320)"/>
<path d="M0 0 C5.28 0 10.56 0 16 0 C16 15.84 16 31.68 16 48 C10.72 48 5.44 48 0 48 C0 32.16 0 16.32 0 0 Z " fill="#BECCDC" transform="translate(64,288)"/>
<path d="M0 0 C5.28 0 10.56 0 16 0 C16 10.56 16 21.12 16 32 C10.72 32 5.44 32 0 32 C0 21.44 0 10.88 0 0 Z " fill="#FCE766" transform="translate(288,480)"/>
<path d="M0 0 C5.28 0 10.56 0 16 0 C16 10.56 16 21.12 16 32 C10.72 32 5.44 32 0 32 C0 21.44 0 10.88 0 0 Z " fill="#FCE766" transform="translate(192,480)"/>
<path d="M0 0 C5.28 0 10.56 0 16 0 C16 10.56 16 21.12 16 32 C10.72 32 5.44 32 0 32 C0 21.44 0 10.88 0 0 Z " fill="#FCE767" transform="translate(288,432)"/>
<path d="M0 0 C5.28 0 10.56 0 16 0 C16 10.56 16 21.12 16 32 C10.72 32 5.44 32 0 32 C0 21.44 0 10.88 0 0 Z " fill="#FCE767" transform="translate(192,432)"/>
<path d="M0 0 C10.56 0 21.12 0 32 0 C32 5.28 32 10.56 32 16 C21.44 16 10.88 16 0 16 C0 10.72 0 5.44 0 0 Z " fill="#235D42" transform="translate(464,416)"/>
<path d="M0 0 C5.28 0 10.56 0 16 0 C16 10.56 16 21.12 16 32 C10.72 32 5.44 32 0 32 C0 21.44 0 10.88 0 0 Z " fill="#FCE767" transform="translate(288,384)"/>
<path d="M0 0 C5.28 0 10.56 0 16 0 C16 10.56 16 21.12 16 32 C10.72 32 5.44 32 0 32 C0 21.44 0 10.88 0 0 Z " fill="#FCE767" transform="translate(192,384)"/>
<path d="M0 0 C5.28 0 10.56 0 16 0 C16 10.56 16 21.12 16 32 C10.72 32 5.44 32 0 32 C0 21.44 0 10.88 0 0 Z " fill="#BDCDDC" transform="translate(432,368)"/>
<path d="M0 0 C5.28 0 10.56 0 16 0 C16 10.56 16 21.12 16 32 C10.72 32 5.44 32 0 32 C0 21.44 0 10.88 0 0 Z " fill="#BDCDDC" transform="translate(32,368)"/>
<path d="M0 0 C5.28 0 10.56 0 16 0 C16 10.56 16 21.12 16 32 C10.72 32 5.44 32 0 32 C0 21.44 0 10.88 0 0 Z " fill="#BDCDDC" transform="translate(48,336)"/>
<path d="M0 0 C5.28 0 10.56 0 16 0 C16 10.56 16 21.12 16 32 C10.72 32 5.44 32 0 32 C0 21.44 0 10.88 0 0 Z " fill="#BDCDDC" transform="translate(400,288)"/>
<path d="M0 0 C5.28 0 10.56 0 16 0 C16 10.56 16 21.12 16 32 C10.72 32 5.44 32 0 32 C0 21.44 0 10.88 0 0 Z " fill="#BCCDDD" transform="translate(48,256)"/>
<path d="M0 0 C5.28 0 10.56 0 16 0 C16 10.56 16 21.12 16 32 C10.72 32 5.44 32 0 32 C0 21.44 0 10.88 0 0 Z " fill="#BDCDDC" transform="translate(368,240)"/>
<path d="M0 0 C5.28 0 10.56 0 16 0 C16 10.56 16 21.12 16 32 C10.72 32 5.44 32 0 32 C0 21.44 0 10.88 0 0 Z " fill="#BDCDDC" transform="translate(128,160)"/>
<path d="M0 0 C5.28 0 10.56 0 16 0 C16 10.56 16 21.12 16 32 C10.72 32 5.44 32 0 32 C0 21.44 0 10.88 0 0 Z " fill="#BECCDC" transform="translate(144,128)"/>
<path d="M0 0 C5.28 0 10.56 0 16 0 C16 10.56 16 21.12 16 32 C10.72 32 5.44 32 0 32 C0 21.44 0 10.88 0 0 Z " fill="#BCCDDD" transform="translate(128,96)"/>
<path d="M0 0 C10.56 0 21.12 0 32 0 C32 5.28 32 10.56 32 16 C21.44 16 10.88 16 0 16 C0 10.72 0 5.44 0 0 Z " fill="#BDCDDC" transform="translate(304,64)"/>
<path d="M0 0 C12.54 0 25.08 0 38 0 C38 11.22 38 22.44 38 34 C25.46 34 12.92 34 0 34 C0 22.78 0 11.56 0 0 Z M2 2 C2 11.9 2 21.8 2 32 C13.22 32 24.44 32 36 32 C36.020625 27.235625 36.04125 22.47125 36.0625 17.5625 C36.071604 16.0576001 36.08070801 14.5527002 36.09008789 13.00219727 C36.09258545 11.82713623 36.09508301 10.6520752 36.09765625 9.44140625 C36.10289307 8.23170166 36.10812988 7.02199707 36.11352539 5.77563477 C36.31775285 3.09187983 36.31775285 3.09187983 35 2 C32.55169574 1.91156207 30.13179401 1.88471248 27.68359375 1.90234375 C26.95253922 1.9037587 26.22148468 1.90517365 25.46827698 1.90663147 C23.12464368 1.91224592 20.78110461 1.92480078 18.4375 1.9375 C16.85221492 1.94251314 15.26692834 1.94707637 13.68164062 1.95117188 C9.78769457 1.96137079 5.89395323 1.98094313 2 2 Z " fill="#000000" transform="translate(229,241)"/>
<path d="M0 0 C5.28 0 10.56 0 16 0 C16 5.28 16 10.56 16 16 C10.72 16 5.44 16 0 16 C0 10.72 0 5.44 0 0 Z " fill="#235D40" transform="translate(496,432)"/>
<path d="M0 0 C5.28 0 10.56 0 16 0 C16 5.28 16 10.56 16 16 C10.72 16 5.44 16 0 16 C0 10.72 0 5.44 0 0 Z " fill="#235D40" transform="translate(0,432)"/>
<path d="M0 0 C5.28 0 10.56 0 16 0 C16 5.28 16 10.56 16 16 C10.72 16 5.44 16 0 16 C0 10.72 0 5.44 0 0 Z " fill="#225D42" transform="translate(16,416)"/>
<path d="M0 0 C5.28 0 10.56 0 16 0 C16 5.28 16 10.56 16 16 C10.72 16 5.44 16 0 16 C0 10.72 0 5.44 0 0 Z " fill="#BCCDDC" transform="translate(384,272)"/>
<path d="M0 0 C5.28 0 10.56 0 16 0 C16 5.28 16 10.56 16 16 C10.72 16 5.44 16 0 16 C0 10.72 0 5.44 0 0 Z " fill="#BCCDDC" transform="translate(64,240)"/>
<path d="M0 0 C5.28 0 10.56 0 16 0 C16 5.28 16 10.56 16 16 C10.72 16 5.44 16 0 16 C0 10.72 0 5.44 0 0 Z " fill="#BCCDDC" transform="translate(80,224)"/>
<path d="M0 0 C5.28 0 10.56 0 16 0 C16 5.28 16 10.56 16 16 C10.72 16 5.44 16 0 16 C0 10.72 0 5.44 0 0 Z " fill="#BECCDB" transform="translate(352,224)"/>
<path d="M0 0 C5.28 0 10.56 0 16 0 C16 5.28 16 10.56 16 16 C10.72 16 5.44 16 0 16 C0 10.72 0 5.44 0 0 Z " fill="#BCCDDC" transform="translate(96,208)"/>
<path d="M0 0 C5.28 0 10.56 0 16 0 C16 5.28 16 10.56 16 16 C10.72 16 5.44 16 0 16 C0 10.72 0 5.44 0 0 Z " fill="#BCCDDC" transform="translate(112,192)"/>
<path d="M0 0 C5.28 0 10.56 0 16 0 C16 5.28 16 10.56 16 16 C10.72 16 5.44 16 0 16 C0 10.72 0 5.44 0 0 Z " fill="#BCCDDC" transform="translate(352,144)"/>
<path d="M0 0 C5.28 0 10.56 0 16 0 C16 5.28 16 10.56 16 16 C10.72 16 5.44 16 0 16 C0 10.72 0 5.44 0 0 Z " fill="#BCCDDC" transform="translate(144,80)"/>
<path d="M0 0 C14.85 0 29.7 0 45 0 C45 1.32 45 2.64 45 4 C30.15 4 15.3 4 0 4 C0 2.68 0 1.36 0 0 Z " fill="#434343" transform="translate(281,207)"/>
<path d="M0 0 C13.86 0 27.72 0 42 0 C42 0.99 42 1.98 42 3 C28.14 3 14.28 3 0 3 C0 2.01 0 1.02 0 0 Z " fill="#000000" transform="translate(171,208)"/>
</svg>
